<svg xmlns="http://www.w3.org/2000/svg" version="1.0" viewBox="0 0 158 248"><g fill="#F30" stroke-width="0"><path d="M30.7 4.2c-1.7 2.2-3.1 4.5-2.9 5 .1.5-.2.7-.7.3-1-.6-4.9 1.4-8.3 4.3-1.5 1.2-1.6 1.8-.5 3 .9 1.2.9 1.4 0 .9-1.8-1.1-11.9 7.6-10.8 9.3.3.6.1 1-.5 1s-.9.8-.7 1.7c.3 1 .8 3 1.1 4.5.4 1.9 1.1 2.6 2.1 2.2 1-.4 1.5 0 1.5 1.1 0 1 .5 1.4 1.2.9.8-.4 1-.3.5.2s-1.3.9-1.9.9c-.9 0-4.5 7.7-6.3 13.6-.6 1.6-.4 2 .6 1.4.8-.5 1.1-.4.6.1-.5.5-1.3 1-1.8 1-.5.1-1.3.2-1.8.3-1.1.1-.3 4 1.2 5.8.6.9.6 1.3-.2 1.3-.6 0-1.1.5-1.1 1.1 0 .6.8.9 1.8.5 1.5-.5 1.5-.4.1.6-1.5 1-1.5 1.5-.1 5 .8 2.1 1.9 3.8 2.4 3.8s.7.4.4.9c-.8 1.3 3.1 4.4 4.5 3.5.8-.5 1-.3.4.5-.4.8.1 2.1 1.4 3.2 1.2 1.1 2.1 2.4 2.1 3 0 .6.5.7 1 .4.6-.3 1-.1 1 .4 0 .6.8 1.1 1.8 1.1.9 0 2.8 1.2 4.1 2.5 1.2 1.4 2.8 2.2 3.4 1.8.5-.3.7-.1.4.4-.8 1.2 1.7 3.6 2.6 2.6.4-.3.7.2.7 1.3.1 2.4 5 8.6 5.1 6.4 0-.8.5-.4 1.1 1 1.5 3.7 1 10.8-1.3 16-1.1 2.4-2.3 4.7-2.7 5-1.2.9-5.2 6.9-5.2 7.7 0 .5-.9 1.7-2.1 2.6-1.1 1-1.8 2.4-1.5 3.2.3.8.1 1.5-.3 1.7-.4.2-2.2 3-4.1 6.3-1.8 3.3-3.6 6.2-4 6.5-1.1.9-3.3 7.1-2.7 7.7.3.3-.1 1.2-.9 2s-1.2 1.9-.9 2.4c.4.5.1.9-.5.9s-.8.5-.5 1c.4.6.1.9-.6.8-.7-.2-2.3 1.5-3.5 3.7-2.5 4.2-3 6-1.5 5 .5-.3 1.3 0 1.7.7.4.7.4 1-.1.6-.4-.4-1.6.3-2.6 1.6-2.1 2.7-2.5 5.1-.7 4 .7-.5.8-.3.3.6-1.4 2.3-1.9 19.8-1.3 45 .1 8 0 15.7-.5 17.3C.1 247.6.3 248 2 248c2.7 0 6.7-8.7 7.1-15.4.3-4.1 0-5.1-1.6-5.7-1.8-.7-1.8-.8.4-.8 1.7-.1 2.1-.5 1.7-1.7-.3-.8-.2-1.3.3-1 1.1.7 3.1-4.7 3.1-8.1 0-1.3-.4-2.2-.9-1.9-.4.3-.6-.6-.3-1.9.2-1.4.8-2.5 1.3-2.5 1.2 0-1.2-5.2-3.1-6.8-1.1-.9-1.2-1.2-.1-1 1.2.3 1.8-1.5 2.4-8.4.2-1.6 0-2.8-.5-2.8-.4 0-.8-.5-.8-1.1 0-.5.4-.8.9-.5.5.3 1.2-.1 1.5-1 .3-.8.2-1.2-.4-.9-.6.3-.1-1 1.1-2.9 1.1-1.9 1.7-4.1 1.3-4.7-.4-.7-.3-.9.3-.6.6.4 1.8-.2 2.7-1.2 1-1.1 3.2-2.5 4.9-3.2 1.8-.7 3.8-2 4.5-2.9 1.1-1.2 1.2-1.2.6 0-.6 1.1-.2 1.1 1.2-.2 1.5-1.3 2.3-1.5 3.1-.7.7.7 1.3.7 1.7.1.4-.7 1.7-.5 3.6.4 1.6.9 3.4 1.3 3.9 1 .5-.4 1.2-.2 1.6.4.4.6 1.1.8 1.6.5.5-.3 1.9.3 3.1 1.4 1.2 1.2 3 2.1 4 2.1 1.2 0 1.6.4 1.2 1.2-.5.8-.2.9 1 .5 1.1-.4 1.5-.3 1 .4-.6 1.1 3.5 4.6 4.8 4.1.4-.1 1.5 1.3 2.4 3 1 2 1.3 3.3.6 3.6-1.6.5-.1 4.3 2.2 5.2 1.9.8 1.9.9.2.9-1.8.1-1.8.2-.1 2.1 1 1.1 1.5 2 1.1 2-1.9 0 1.9 4.1 5.6 5.9 2.4 1.2 5.5 3.2 7.1 4.6 2.7 2.4 2.7 2.5.8 4.4-1.1 1.1-2.2 1.7-2.5 1.4-.3-.4-.6-.2-.6.4 0 .6 1.6 1.4 3.5 1.7 1.9.4 4.5 1.7 5.8 2.9 2.4 2.2 5.7 10.4 5.7 13.9 0 1 .6 1.8 1.3 1.8.8 0 .8.3-.2.9-.9.6-1.2 1.9-.8 3.9.3 1.6.1 3.4-.6 4.1-.6.6-.7 1.1-.2 1.1.6 0 .3.5-.5 1-1.1.7-.9.9 1 .8 1.4-.1 2.8-.7 3.2-1.3.5-.6.8-.6.8.3 0 .9 1.6 1.2 5.5 1.1 5.3-.2 6.3-1.3 2-2.1-1-.2-2.2-1.4-2.6-2.8-.4-1.4-.7-2.1-.8-1.6-.1.5-.8.3-1.6-.4-1.1-.9-1.2-1.7-.4-3.1.7-1.3.6-1.9-.1-1.9-.6 0-1-.6-.9-1.3.3-2.6-.1-3.8-1.2-3.1-.8.5-.8.1 0-1.4.7-1.3.7-2.3.1-2.7-.5-.3-.7-1.2-.3-2 .3-.8 0-1.5-.6-1.5s-1-.3-1-.8c.4-2.4-.4-4-2.3-5-1.6-.7-1.8-1.1-.7-1.1.9-.1 1.6-.8 1.6-1.6s-.4-1.2-.8-1c-.3.3-1.2-.2-1.8-.9-1-1.2-.8-1.3 1.1-.9 2.3.6 2.3.6.4-1.6-1.1-1.2-2.6-1.9-3.3-1.7-.7.3-1.2 0-1-.7.1-.7-.4-1.1-1-.9-.7.1-1.3-.7-1.3-1.8s-.9-2.5-2-3.2c-2-1.3-2.8-3.8-1.1-3.8.5 0 1.2-.7 1.5-1.6.4-1 .2-1.3-.7-.8-.6.4-.3-.3.8-1.5 1.6-1.9 1.7-2.4.5-3.1-.8-.6-1.1-1-.7-1 .5 0 .1-.7-.8-1.7-1-.9-1.5-2.6-1.2-3.9.3-1.9-.1-2.4-2.7-3-1.7-.4-3.5-.7-4-.5-.5.1-.5-.4.1-1.1.6-.7.9-2.8.7-4.6-.3-4.3-10.6-15.6-12.5-13.8-.9.8-.9.6-.1-1 1-1.8.8-2.3-1.3-3.2-1.6-.8-2.3-1.7-1.9-2.7.7-1.6-3.3-6.8-4.6-6-.7.4-.7-15.1.1-17.5.2-.8 2.9-3.8 5.9-6.7 4.6-4.4 5.3-5.5 4-6.4-1.3-.9-1.2-1 .2-.5 1 .3 2 .1 2.4-.5.3-.6 1.2-.8 2-.5.8.3 1.4.1 1.4-.4 0-1.7-.5-2.5-1.3-2.2-.5.1-.6-.2-.2-.8.9-1.5 3.7.8 2.8 2.4-.6 1 2.1-1 5.5-4.2.7-.7 1.9-.9 2.5-.6.8.5.8.2 0-.7-1.6-1.6-1.7-2.9-.2-2.9.5 0 .8.4.5.9-.8 1.2 2 2.2 3.9 1.5 1.4-.6 1.9-1.7 1.6-3.6 0-.4.5-.5 1.2-.2.7.2 2.4-.8 3.7-2.3l2.5-2.8-3 2.5c-2.2 1.9-2.6 2-1.5.5 2.1-2.8 3.3-3.6 4.9-3 .9.4 1.1 0 .7-1-.3-.9-.2-1.3.3-1 .5.3 1.2.1 1.6-.4.3-.6 1.1-.8 1.8-.5 1.5.5 6-3 5-4-.3-.3-.1-.6.5-.6.7 0 1.2.4 1.2 1 0 .5.8.2 1.8-.8 2.3-2.1 1.9-3-.5-1.1-1.6 1.3-1.7 1.2-.4-.4.7-.9 2.4-1.7 3.6-1.7 1.3 0 2.6-.7 2.9-1.6.3-.9 1.3-1.4 2.1-1 .8.3 1.7 0 2.1-.6.4-.7.3-.8-.4-.4s-1.2.2-1.2-.3c0-.6.4-1.1.9-1.1s1.7-.7 2.5-1.6c1.1-1.1 1.6-1.2 1.6-.3 0 .7.6.4 1.4-.7.8-1 1.8-1.6 2.2-1.2.8.8 5-4.2 4.6-5.5-.1-.5.1-.6.6-.3 1.3.8 6.9-5.8 6.4-7.5-.3-1.2-.2-1.2.6 0 .6.8 1.5 1 2.2.6.8-.5 1.1-.4.7.2-1 1.6 1.8 3.4 3.9 2.6 4-1.5 6-6.2 3.4-7.8-.5-.3-1-1.2-1-1.8 0-.7.4-.6 1 .3.8 1.1.9.8.5-1.1-.5-2-.1-3.3 1.8-5 2.9-2.8 4-5.6 2.6-6.5-.6-.4-.6-1.1.2-2 .6-.8.8-1.4.4-1.4s-.2-.7.5-1.5c1.6-1.9.9-2.8-1.4-1.9-1 .4-1.5 1.3-1.1 2.2.5 1.3.3 1.3-1.2.1-1.5-1.3-1.6-1.2-1.1.9.4 1.2.3 2-.2 1.7-.4-.3-2.1 1-3.7 2.8-1.5 1.7-4 3.3-5.3 3.5-1.4.2-3 1.1-3.7 2-2.5 3.5-4.5 5-14 10.2-5.4 3-10.4 6.1-11.1 6.9-.8.9-1 1-.7.3.5-1-.3-.8-2.6.4-1.9 1-3.6 1.9-3.9 1.9-2.9.5-4.9 1.8-4.3 2.8.4.7-.1.6-1-.2-.9-.7-1.7-.9-1.7-.4s-5.4.9-12.1.9c-7.3 0-12.3.5-12.7 1.1-.4.6-1.7 1.3-3 1.7-1.3.5-1.9 1.2-1.5 1.9.4.6-.6.2-2.1-1.1-1.6-1.2-3.2-1.9-3.7-1.6-.5.3-1.7 0-2.8-.5-1.4-.8-2-.8-2.3.1-.3.8-.9.8-2.5-.1-1.7-.8-2.4-.8-2.9.1-.5.7-.3.8.6.3.9-.6 1.1-.4.6.4-.6.9-1.2.9-2.5-.3-1-.9-3.4-1.6-5.4-1.6-2.8 0-4-.6-5.3-2.5-1.2-1.9-2-2.3-2.9-1.5-1 .8-1.6.6-2.4-.7-.6-1-1.1-1.5-1.1-1.1 0 .4-1.2.1-2.7-.7-1.5-.8-2.9-1.2-3.3-1-1.3.8-3.1-6.4-2.1-8.3.6-1.1.7-2.3.3-2.7-.4-.5-.1-.4.7 0 1.1.6 1.3.4.7-1-.5-1.5-.4-1.6.9-.5 1.3 1 1.5.9 1.5-.7 0-2.7-1-3.5-2.7-2.1-1.1.8-1.2.7-.7-.6.3-.9 1-1.6 1.5-1.6s.9-1.8.9-3.9c0-2.2.5-5.2 1.1-6.8.6-1.5 1.1-4.6 1.2-6.8.2-3.5.5-3.9 2.7-4 3.7 0 5.3-1.3 3.7-2.9-.6-.8-1.5-1.2-1.9-.9-.4.2-.5-.3-.1-1.3.6-1.5.7-1.5 1.5.1.9 1.5 1.1 1.5 2.9-.1 1-.9 1.6-2.1 1.3-2.5-.3-.5.1-.6.9-.3s1.8.1 2.2-.5c.3-.6 1.3-1.1 2-1.1.8 0 3.8-1.8 6.7-4 2.9-2.2 7.2-4.8 9.6-5.7 2.4-1 4-2.3 3.8-3-.3-.7.3-1.4 1.2-1.7 3.5-1 10.8-2 12.7-1.7 1.8.2 1.8.1-.3-1.4-2.2-1.6-2.7-1.6-8.8.4C64.9 8 61.1 9 60 9c-2.1 0-2.7-1.5-1-2.5.7-.4.6-1.3-.1-2.6-.8-1.7-1.3-1.8-2.5-.8-.9.7-1.3 2-1.1 2.9.3 1.2-.4 1.7-2.4 1.8-1.6.1-2.9-.3-2.9-.8 0-.6-.5-.8-1.2-.4-.7.5-.8.3-.4-.5.5-.7 0-1.9-1-2.7-1.1-.9-1.3-1.3-.6-.9.6.3 1.2.1 1.2-.5 0-.7-1.5-1.1-3.7-1-2.1.1-4 .1-4.3 0-4.1-1.3-6.2-.6-9.3 3.2zm6.8.7c.3.5.2 1.2-.3 1.5-.5.3-.9-.1-.9-.9 0-1.7.3-1.9 1.2-.6zm-10.8 7.5c0 .8-.6 1.2-1.5.9-1.1-.5-1.1-.7 0-1.4.7-.5 1.3-.9 1.4-.9 0 0 .1.6.1 1.4zM11.4 27.6c.3.8.2 1.2-.4.9-.6-.3-1-1-1-1.6 0-1.4.7-1.1 1.4.7zM145.5 52c-1 1.1-2.2 2-2.8 2-.5 0 .1-.9 1.4-2 3.1-2.5 3.7-2.5 1.4 0zm1.8 1.5c-.3.9-.8 1.4-1 1.1-.3-.3-.2-.9.2-1.5.9-1.6 1.5-1.3.8.4zm-2.8 4.5c.3.5.1 1-.4 1-.6 0-1.1-.5-1.1-1 0-.6.2-1 .4-1 .3 0 .8.4 1.1 1zM123 67.4c0 .2-.8 1-1.7 1.7-1.6 1.3-1.7 1.2-.4-.4 1.3-1.6 2.1-2.1 2.1-1.3zm8.5 6.6c-.3.5-1.2 1-1.8 1-.7 0-.6-.4.3-1 1.9-1.2 2.3-1.2 1.5 0zm-102.8.6c-.3.3-1.2.4-1.9.1-.8-.3-.5-.6.6-.6 1.1-.1 1.7.2 1.3.5zm-8 6.7c0 .8-.6 1.4-1.4 1.4-1.7 0-1.7-1.4 0-2 .6-.3 1.2-.6 1.3-.6 0-.1.1.5.1 1.2zm40.7 2.3c.3.8.2 1.2-.4.9-.6-.3-1-1-1-1.6 0-1.4.7-1.1 1.4.7zm23.2 24c.1.9 0 1.3-.4 1-.3-.4-.7-1.4-.8-2.2-.1-.9 0-1.3.4-1 .3.4.7 1.4.8 2.2zm-25.5 14.1c1.3 1.6 1.2 1.7-.3.4-1-.7-1.8-1.5-1.8-1.7 0-.8.8-.3 2.1 1.3zm4.9-.3c0 .2-.8 1-1.7 1.7-1.6 1.3-1.7 1.2-.4-.4 1.3-1.6 2.1-2.1 2.1-1.3zm-43.3 27c-1.3 1-1.4 1.5-.6 1.8.9.3.8.6-.3 1-2 .8-1.8-2 .3-3.3 2.2-1.4 2.6-1 .6.5zm36.3 3c0 .2-.7.7-1.6 1-.8.3-1.2.2-.9-.4.6-1 2.5-1.4 2.5-.6zm9.6 13.8c1.9 2.3 1.9 2.3-.2.5-1.1-.9-2.4-1.4-2.9-1-.4.5-.5.2-.1-.5.9-1.6 1-1.6 3.2 1zM49.5 169c-.3.5-1.2 1-1.8 1-.7 0-.6-.4.3-1 1.9-1.2 2.3-1.2 1.5 0zm-29.6 5.9c-1.3 1.1-2.6 1.7-2.9 1.4-.6-.6 3-3.3 4.3-3.3.5 0-.1.9-1.4 1.9zm54.6 4.9c-.3.3-1.1 0-1.8-.7-.9-1-.8-1.1.6-.5 1 .3 1.5.9 1.2 1.2zm7.8 25.6c.4 1 .1 1.3-.8.9-.8-.3-1.2-.9-.9-1.4.7-1.2 1.1-1.1 1.7.5zm4.8 7.9c-1 .9-1.1.8-.5-.6.3-1 .9-1.5 1.2-1.2.3.3 0 1.1-.7 1.8z"/><path d="M155.3 40.4c-1.2 1.3-1.9 2.7-1.6 3 .3.3 0 1.2-.7 2.1-.7.8-.9 1.5-.5 1.5s.2.6-.4 1.4c-1.5 1.7-.1 2.8 1.9 1.5.8-.5 1.1-.9.7-.9-.4 0-.2-.6.5-1.4.7-.8 1.6-1.2 1.9-1 .3.2.6-1.7.6-4.1 0-2.5-.1-4.5-.2-4.5s-1.1 1.1-2.2 2.4zM60 156.4c0 .2.7.7 1.6 1 .8.3 1.2.2.9-.4-.6-1-2.5-1.4-2.5-.6z"/></g><path fill="#F60" d="M72.8 8.7c1.2.2 3 .2 4 0 .9-.3-.1-.5-2.3-.4-2.2 0-3 .2-1.7.4zM22.1 66.6c0 1.1.3 1.4.6.6.3-.7.2-1.6-.1-1.9-.3-.4-.6.2-.5 1.3zm34.7 14.1c.7.3 1.6.2 1.9-.1.4-.3-.2-.6-1.3-.5-1.1 0-1.4.3-.6.6zm-2.5 58.8c0 2.7.2 3.8.4 2.2.2-1.5.2-3.7 0-5-.2-1.2-.4 0-.4 2.8zm-42.2 53.1c0 1.1.3 1.4.6.6.3-.7.2-1.6-.1-1.9-.3-.4-.6.2-.5 1.3z"/><path fill="red" d="M36.3 5.5c0 .8.4 1.2.9.9.5-.3.6-1 .3-1.5-.9-1.3-1.2-1.1-1.2.6zm-11.1 6.4c-1.1.7-1.1.9 0 1.4.9.3 1.5-.1 1.5-.9s-.1-1.4-.1-1.4c-.1 0-.7.4-1.4.9zM10 26.9c0 .6.4 1.3 1 1.6.6.3.7-.1.4-.9-.7-1.8-1.4-2.1-1.4-.7zm22.7 1.5c-.4 1-.3 1.5.3 1.1.6-.3 1-.1 1 .6s.3 1 .6.6c.3-.3.2-1.3-.4-2.2-.8-1.6-.9-1.6-1.5-.1zm119.7 14.4c.4.7.2 1.9-.4 2.7-.7.8-.9 1.5-.5 1.5s.2.6-.4 1.4c-.9 1.1-.9 1.6.1 2.2.7.4 1 .4.6-.1-.4-.4-.3-1.4.3-2.2.6-.7.8-1.3.4-1.3s-.2-.7.5-1.5c1.1-1.3 1.1-1.8 0-2.8-1-.9-1.1-.9-.6.1zm-8.3 9.2c-1.3 1.1-1.9 2-1.4 2 .6 0 1.8-.9 2.8-2 2.3-2.5 1.7-2.5-1.4 0zm2.4 1.1c-.4.6-.5 1.2-.2 1.5.2.3.7-.2 1-1.1.7-1.7.1-2-.8-.4zM23.6 56.6c-.5 1.4-.4 1.5.9.4 1.7-1.4 1.9-2 .6-2-.5 0-1.2.7-1.5 1.6zM143 58c0 .5.5 1 1.1 1 .5 0 .7-.5.4-1-.3-.6-.8-1-1.1-1-.2 0-.4.4-.4 1zm2.6 3.2c-.3 1.3-.2 2.6.2 3 .4.4.8-.6.9-2.3.3-3.5-.2-3.8-1.1-.7zm-24.7 7.5c-1.3 1.6-1.2 1.7.4.4.9-.7 1.7-1.5 1.7-1.7 0-.8-.8-.3-2.1 1.3zM145 71c0 .5.5 1 1 1 .6 0 1-.5 1-1 0-.6-.4-1-1-1-.5 0-1 .4-1 1zm-15 3c-.9.6-1 1-.3 1 .6 0 1.5-.5 1.8-1 .8-1.2.4-1.2-1.5 0zm-103.2.7c.7.3 1.6.2 1.9-.1.4-.3-.2-.6-1.3-.5-1.1 0-1.4.3-.6.6zm5.8 1.5c.3.5 1 .6 1.5.3 1.3-.9 1.1-1.2-.6-1.2-.8 0-1.2.4-.9.9zm60.2 3.5c.7.3 1.6.2 1.9-.1.4-.3-.2-.6-1.3-.5-1.1 0-1.4.3-.6.6zm-73.5 1c-1.7.6-1.7 2 0 2 .8 0 1.4-.6 1.4-1.4 0-.7-.1-1.3-.1-1.2-.1 0-.7.3-1.3.6zm31.2.3c-.4.6-1.1.7-1.7.4-.7-.4-.8-.2-.4.5.6.9 1.1.9 2.1.1.7-.6 2-.8 2.9-.4.9.3 1.6.1 1.6-.5 0-1.4-3.7-1.5-4.5-.1zm9.2 2c1 1.1 1.9 2 2.1 2 .1 0-.2-.9-.8-2-.6-1.1-1.5-2-2-2-.6 0-.2.9.7 2zm3.3-.6c0 .2.8 1 1.8 1.7 1.5 1.3 1.6 1.2.3-.4S63 81.6 63 82.4zm58.5.6c-.3.6.1.7.9.4 1.8-.7 2.1-1.4.7-1.4-.6 0-1.3.4-1.6 1zm-3 1.1c-.5.5-2.3 2.1-4 3.5-1.6 1.4-2.1 2.1-1 1.5 3.1-1.6 7-4.9 6.5-5.4-.3-.3-.9-.1-1.5.4zM19 87.4c0 .2.7.7 1.6 1 .8.3 1.2.2.9-.4-.6-1-2.5-1.4-2.5-.6zm86.2 5.6c-1.2 1-1.8 2.1-1.3 2.4.5.3 1.2-.1 1.5-.9.3-.9 1.6-2 2.8-2.5 1.3-.5 1.6-.9.8-.9s-2.5.8-3.8 1.9zm-8.7 6c-.4.6-1.1.7-1.7.4-.7-.4-.8-.2-.4.4 1 1.6 2.3 1.5 3-.3.6-1.7 0-2-.9-.5zm-5 2.8c-.5.4-1.7 1.6-2.5 2.7-1.1 1.5-.7 1.4 1.5-.5 1.7-1.4 3.2-2.6 3.4-2.8.2-.1 0-.2-.5-.2s-1.3.4-1.9.8zm-8.1 4.6c.1.8.5 1.8.8 2.2.4.3.5-.1.4-1-.1-.8-.5-1.8-.8-2.2-.4-.3-.5.1-.4 1zm2.9 1.1c0 .8.4 1.2.9.9.5-.3.6-1 .3-1.5-.9-1.3-1.2-1.1-1.2.6zm-7 2.4c.1 1.2.6 1.7 1.6 1.3 1-.4 1.1-.7.3-1-.7-.2-1-.8-.6-1.3.3-.5.1-.9-.5-.9-.5 0-.9.9-.8 1.9zm-9.8 4.1c-.4.6-.1.9.7.8.7-.2 1.2.3 1 1-.1.8.2 1.1.8.7.8-.5.7-1.1-.1-2.1-1.4-1.7-1.6-1.7-2.4-.4zm-2 4c-.3.5-1.2.7-2 .3-.8-.3-1.5-.3-1.5 0 0 1.3 2.8 1.3 4.5.1 1-.8 1.4-1.4.8-1.4-.7 0-1.4.4-1.8 1zM57 120.4c0 .2.8 1 1.8 1.7 1.5 1.3 1.6 1.2.3-.4s-2.1-2.1-2.1-1.3zm4.9 2.3c-1.3 1.6-1.2 1.7.4.4.9-.7 1.7-1.5 1.7-1.7 0-.8-.8-.3-2.1 1.3zm-41.8 25.2c-2.1 1.3-2.3 4.1-.3 3.3 1.1-.4 1.2-.7.3-1-.8-.3-.7-.8.6-1.8 2-1.5 1.6-1.9-.6-.5zm34.4 4.1c-.3.6.1.7.9.4 1.8-.7 2.1-1.4.7-1.4-.6 0-1.3.4-1.6 1zm5 3.9c-.3.6.5 1.5 1.7 2.1 2.1 1 2.1 1 .6-.3-1-.8-1.5-1.7-1.1-2 .3-.4.4-.7 0-.7-.3 0-.8.4-1.2.9zm3.1 5.8c-.6 1.4-.5 1.5.5.6.7-.7 1-1.5.7-1.8-.3-.3-.9.2-1.2 1.2zm.8 2.5c-.4.7-.3 1 .1.5.5-.4 1.8.1 2.9 1 2.1 1.8 2.1 1.8.2-.5-2.2-2.6-2.3-2.6-3.2-1zM48 169c-.9.6-1 1-.3 1 .6 0 1.5-.5 1.8-1 .8-1.2.4-1.2-1.5 0zm-13.4.8c-.3.5.1.9.9.9s1.2-.4.9-.9c-.3-.4-.7-.8-.9-.8-.2 0-.6.4-.9.8zm-16.2 4.6c-1 .8-1.7 1.7-1.4 1.9.3.3 1.6-.3 2.9-1.4 2.7-2.2 1.5-2.6-1.5-.5zm54.6 5c.7.7 1.3.7 2 0 .6-.6.3-1-1-1s-1.6.4-1 1zm10.3 14.3c.4.3.1 1.3-.6 2.2-1.1 1.4-1 1.4.5.2 1.6-1.2 1.6-3.1.1-3.1-.4 0-.3.3 0 .7zm-18.5 1c.7.3 1.6.2 1.9-.1.4-.3-.2-.6-1.3-.5-1.1 0-1.4.3-.6.6zm16.3 5.9c0 1.1.3 1.4.6.6.3-.7.2-1.6-.1-1.9-.3-.4-.6.2-.5 1.3zm-.5 4.3c-.3.5.1 1.1.9 1.4.9.4 1.2.1.8-.9-.6-1.6-1-1.7-1.7-.5zm6 7.8c-.6 1.4-.5 1.5.5.6.7-.7 1-1.5.7-1.8-.3-.3-.9.2-1.2 1.2zm4 1.4c2.1 2.3 2.1 2.3 2.1.5 0-.8-.9-1.7-2-2-1.8-.4-1.8-.4-.1 1.5zm.9 3.9c.3.5.8 1 1.1 1 .2 0 .4-.5.4-1 0-.6-.5-1-1.1-1-.5 0-.7.4-.4 1zm4.1 12.7c-.6 1.4-.5 1.5.5.6.7-.7 1-1.5.7-1.8-.3-.3-.9.2-1.2 1.2zm-4.5 1.9c0 1.1.3 1.4.6.6.3-.7.2-1.6-.1-1.9-.3-.4-.6.2-.5 1.3zm6.6 5.8c-.3.8.1 2 .9 2.6 1 .9 1.4.9 1.4.1 0-.6-.4-1.1-1-1.1-.5 0-.7-.7-.4-1.5.4-.8.4-1.5.1-1.5-.3 0-.7.6-1 1.4z"/></svg>