<svg xmlns="http://www.w3.org/2000/svg" version="1.0" viewBox="0 0 639 166"><g fill="#F30" stroke-width="0"><path d="M19.9 2.4c-1.3 1.4-5.5 5.4-9.2 9-5.6 5.5-6.7 7-6.2 8.9.4 1.2 1.3 2.6 1.9 3.2 1 .8.6 2.5-1.7 7.5-3.1 6.8-3.5 11-1.4 15.9 1.7 3.9 6.6 9.2 10.9 11.9 2 1.3 4.7 3.9 5.8 5.8 1.2 1.8 2.6 3.4 3.2 3.4 2.3 0 .2 9.6-3.2 14.5-4.4 6.4-17 31.3-17 33.6 0 1.1-.4 1.9-.9 1.9s-.8 9.1-.8 20.8c.1 11.4-.2 21.7-.6 22.9-.7 1.9-.5 2.3 1.2 2.3 1.4 0 2.1-.6 2.1-1.8 0-1 .5-2.3 1.1-2.9.6-.6 1.2-3 1.4-5.4.1-2.4.8-5.7 1.4-7.4.7-1.6 1.1-4.1.9-5.5-.1-1.4.1-3 .5-3.7.4-.6.2-1.5-.4-1.8-1.3-.9-.3-11.6 1.7-16.3 1.9-4.6 8-7.1 14.7-6.1 6.3 1 14.7 7.2 14.7 10.8 0 3.5 3.9 11.1 5.6 11.1.8 0 2.5.9 3.7 2 1.7 1.6 1.9 2.4 1.1 3.7-.9 1.4-.5 2 2 3.3 4.2 2.1 6.4 7.1 6.1 14.2l-.2 5.8h5.4c3.4 0 5.2-.4 4.8-1-.3-.6-1.2-1-2-1-.7 0-1.9-1.7-2.5-3.8-.6-2-1.4-4.4-1.8-5.2-.3-.8-.6-2-.7-2.5-.4-4.3-3.3-11.5-5.7-14.1-2.5-2.7-2.8-3.6-2.2-7.1.4-2.6.2-4.3-.5-4.7-.6-.4-1.1-1.5-1.1-2.5s-.9-2.1-1.9-2.4c-1.4-.3-1.8-1.1-1.5-2.4.4-1.3-.7-3.4-3.1-6.3-2-2.3-4.1-5.2-4.7-6.4-.6-1.2-2-3.1-3.1-4.3-1.1-1.3-2.2-4.2-2.5-6.8-.6-6.3 2.4-10.5 11.8-16.6 4.1-2.6 8.8-6 10.5-7.4 1.6-1.4 3.5-2.5 4.2-2.5.6 0 1.3-.4 1.5-.8.2-.5 3.5-3 7.3-5.6 3.9-2.7 9.3-7.1 12.1-9.8 3.2-3.1 5.4-4.6 5.8-3.9.4.6 1.6 1.1 2.7 1.1 1.4 0 1.9-.7 2-2.8.2-5.5.6-7.6 1.7-8 .7-.2 1.2-.9 1.2-1.6 0-.7 1.1-2.2 2.5-3.2 3.1-2.3 3.7-8.1.7-6.5-1 .5-3.8 3-6.2 5.5-2.5 2.5-5 4.6-5.7 4.6-.6 0-2 1-3 2.3-2.2 2.9-14.2 10.1-20.3 12.2-5.4 1.9-15.1 2.8-28 2.5-7.6-.1-9.9-.5-11.5-2-1.1-1-3.1-2.1-4.5-2.5-4.8-1.4-6.5-4.6-3.8-7.3.6-.6 1.2-3.7 1.4-6.9.4-9 .9-10.7 3.2-11.8 1.1-.5 2.3-1.6 2.5-2.5.2-.8 1.7-2.2 3.3-3 1.6-.8 5-3 7.5-4.7 2.6-1.8 5.1-3.3 5.7-3.3.5 0 1.2-.7 1.6-1.5.3-1 1.9-1.5 4.6-1.5 2.2 0 4-.5 4-1 0-1.9-2.5-2.1-6.3-.5-5 2.1-5.7 1.9-5.7-1.3L37.9.5l-2.4 2.9-2.4 3-1.2-2.6c-2-4.4-8.3-5.1-12-1.4zm229.6 51.8c-3.7 2.1-10.3 7.9-12.1 10.6-1 1.5-2.5 5.4-3.4 8.7-1.5 5.6-1.7 6-5 6.6-4 .6-7.1 2.2-11.8 5.8-8.1 6.3-14.2 28.2-9.4 34.1l1.7 2.1 7.8-5 7.7-5.1v4.5c0 3.7.3 4.5 1.9 4.5 1.9 0 16.3-9 17.6-11 1.5-2.5-.6-2.1-5 1s-7.5 3.4-7.5.8c0-2.5 9.2-42.5 10.6-46.3 2.3-5.9 4.1-7.5 8.5-7.5 3.5 0 5.9-1.8 5.9-4.4 0-1-5.4-.6-7.5.6zm-19.7 32c.7.9.3 4.3-1.2 11.2-2.3 10.4-3.6 12.3-10.9 16.2-4.2 2.3-5 1-4.4-6.5.6-7.7 3.6-16.3 6.8-19.7 2.5-2.6 7.9-3.3 9.7-1.2zM601 55.1c-5 3-10.9 8.8-13 12.9-1.6 3.2-12 47.7-12 51.6 0 1.1.6 1.4 2.3.9 3.3-1 4.4-2.9 5.7-10.3 1.4-7.3 2.7-10.5 3.9-9.8.4.3 2.9 5.6 5.5 11.9 5.5 13.2 8.7 17.6 15.3 20.7 5.2 2.4 14.6 3 18.2 1.1 2.2-1.2 2.7-4.5 1.2-7-.7-1.1-1.2-.8-2.6 1.2-.9 1.4-3.2 3.1-5 3.7-4.2 1.4-8.2-.4-11.8-5.2-2.4-3.3-14.7-29.8-14.7-31.6 0-.6 2.3-3.1 5.1-5.6 4.9-4.4 9-5.8 10.4-3.6 1.1 1.7 2 1.1 4-2.6 1.6-3 1.7-3.7.4-4.5-3.9-2.5-6.3-1.1-18.8 10.8-3.7 3.4-6.9 6.3-7.2 6.3-.8 0 3.2-17.6 6-27 2.4-7.6 4.8-10.1 10.2-10.4 2.8-.1 5.9-2.7 5.9-4.8 0-1.6-5.5-.8-9 1.3zM383.2 57c-5.8 3.4-6.6 4.3-22.9 28.7-6.4 9.5-11.9 17-12.3 16.8-.4-.2-1-4.4-1.4-9.2-.9-11.3-3.5-31.5-4.1-32.2-.3-.2-1 0-1.6.6-.5.5-3.1.8-5.7.5-7.6-.7-12.3 1.1-17.9 7.1-6.4 6.8-8.9 13.1-7.7 19.4.5 2.6 1.4 4.8 1.9 5 .6.1 2.3-.7 3.9-2l2.8-2.3-1.6-4.9c-2-5.7-1.4-9.4 2-12.6 2-1.9 3.9-2.4 9.4-2.7 5-.3 7-.1 7 .8 0 1.7-3.5 15.7-7.2 28.2-3.9 13.7-5.7 15.8-13.7 15.8-5.2 0-5.8.2-7.4 3l-1.8 3h5.1c6 0 12-2.7 14.8-6.7 3.7-5.3 5.2-9.3 8.8-23 3-11.8 4.3-16 4.4-14.2 0 .2.7 7.1 1.5 15.4.8 8.2 1.5 17.3 1.5 20.2 0 2.8.4 5.4.9 5.7 1.2.8 4.3-3.1 8.5-10.6 5-9.2 19.6-31.1 20.2-30.5.5.5-2.2 11.9-7.7 32.4-2.2 8.2-2.4 12-.8 12.5 1.7.6 17.3-2.2 18.4-3.3.5-.5-.8-.9-3.6-.9-5 0-6.9-1.3-6.9-4.7 0-3.7 10.8-47 12.6-50.4 1.4-2.8 1.9-3.1 5.1-2.6 2.9.5 3.9.2 5.4-1.6 1-1.2 1.8-2.5 1.9-3 0-1.8-7-.4-11.8 2.3zM197 62.5c-2.2 2.3-2.2 2.5-.6 5 2 3.1 2.7 3.1 5.5.1 1.9-2 2-2.7 1-5-1.5-3.2-2.9-3.3-5.9-.1zm245 0c-2.2 2.3-2.2 2.5-.6 5 2 3.1 2.7 3.1 5.5.1 1.9-2 2-2.7 1-5-1.5-3.2-2.9-3.3-5.9-.1zm190.3-.8c-2.6 1.8-2.9 4-.8 6.7 1.3 1.8 1.5 1.8 4.5-.4 1.7-1.2 2.9-2.7 2.5-3.4-.3-.6-.8-1.9-1.1-2.9-.8-2.1-2.2-2.1-5.1 0z"/><path d="M112.3 63.4c-13.1 4.2-25 18.8-28.3 35-3.9 19.3 6.8 27.4 25.3 19.3 6.6-3 6.8-2.8 4.3 6.8-3 11.1-5.8 13.5-15.9 13.5-6.3 0-8.7 1.1-8.7 3.8 0 1.2 1.2 1.4 6 .9 6.9-.6 13.1-3.8 17.9-9.2 5.2-6 6.5-9.3 12.2-31.9 1-3.9 1.8-5 4.1-5.8 5.2-1.8 1.9-2.6-8.5-2.1-11.7.6-16.6 2.2-6.9 2.3 3.6 0 6.2.4 6.2 1 0 3.2-3.6 14.7-4.9 15.8-3.2 2.6-9.7 5.2-13.2 5.2-6.5 0-11.9-7.4-11.9-16.2 0-8.1 5.3-22.5 10.7-28.9 9-10.6 22.3-11.4 26.1-1.4.8 2.2 1.6 4.2 1.8 4.3.5.6 6.3-6.2 6.4-7.4 0-.6-1.2-2.3-2.6-3.8-2.4-2.3-3.4-2.6-9.3-2.5-3.6 0-8.5.6-10.8 1.3zm427.4 13.8c-2.6.9-2.8 1.3-2.2 4.9 1.5 8.7-4.1 23.6-11.4 30.2-4.5 4-6.2 4.5-8.1 2.2-1.8-2.1-.8-9 3-20.8 1.7-5.5 2.9-10.1 2.6-10.5-.4-.3-1.8-.2-3.3.4-2.2.8-3.1 2.3-5.5 9.8-1.5 4.8-4 10.5-5.4 12.5-3.6 4.9-9.4 9.2-11.9 8.9-1.7-.3-2-1-2-5.8.1-6.8 3.5-14.6 9.4-21.2 2.2-2.5 4.1-4.8 4.1-5 0-.4-18 .2-20.6.7-3 .7-8.3 14.5-5.5 14.5.5 0 1.5-1.5 2.1-3.4.6-1.9 1.8-4 2.6-4.7 1.3-1.1 11.1-1.5 12.2-.5.2.3-1.4 2.6-3.6 5.3-6.1 7.2-8.8 14.5-8.3 22.5.1 1 1.2 2.5 2.5 3.3 2.2 1.4 2.8 1.4 6 .1 1.9-.8 5.8-3.6 8.6-6.2l5-4.7v4.6c0 6.2 2.7 8.2 8.5 6.5 6.5-2 17.3-13.5 22.3-23.8 6.4-13.2 5.9-22.2-1.1-19.8zM145 84c-6.1 3.8-9.5 7.2-5.5 5.7.9-.4 2.8-1 4.1-1.3 3-.8 3.1 1 .5 12.1-5.2 21.9-3.7 24.6 9.1 16 3.7-2.5 7-4.5 7.4-4.5.3 0 .4 1.9.2 4.2-.4 6.1 2 6.1 10.6.1 8-5.5 10.3-9 3.3-4.8-2.6 1.4-5.1 2.3-5.8 2-1.5-1-.5-8.6 3-22.4 1.6-6.1 2.7-11.1 2.5-11.1-.2 0-1.9.7-3.7 1.6-3.3 1.6-3.5 2-5.7 12.3-1.2 5.8-2.6 11.4-3.1 12.3-1.2 2.2-9.3 7.8-11.3 7.8-3.2 0-2.9-4.4 1.8-23.5 1.9-7.4 2-10.5.4-10.5-.7.1-4.2 1.9-7.8 4zm45.5-.9c-6.4 4-8.6 5.9-7.9 7 .3.5 1.5.2 2.7-.6 5.4-3.8 5.9-.8 2.2 13.5-2.6 9.9-3.2 17.5-1.5 18.5 1.2.7 3.6-.5 11.8-5.8 7.6-5 8.5-8 1.2-3.9-4.3 2.3-5.2 2.5-6 1.2-1.1-1.7-.7-4.5 2.6-18.6 3.8-15.9 3.5-16.6-5.1-11.3zm75-.5c-10.8 5.6-16.4 14.2-17.3 26.5-.4 5.9-.2 6.8 2.1 9.4 3 3.6 7.4 3.7 13.8.5 9.7-5 13.5-9.4 16.4-19.2 4.8-16.3-1.9-24-15-17.2zm7.9 4.6c3.7 5.2.3 20.3-6 26.5-3.7 3.8-6.2 4.1-9.5 1.4-4.9-4-2.1-20.1 4.8-27.4 3.4-3.5 8.5-3.7 10.7-.5zm127.8-3.7c-2.9 2-6.2 5.1-7.3 6.8-5.2 8.5-7.8 26-4.3 29.8 2 2.3 4.5 1.4 11.8-4.1 2.9-2.2 5.7-4 6.2-4s.8 2 .6 4.5c-.3 3.7-.1 4.5 1.3 4.5 2.4 0 16.5-10 16.5-11.7 0-1-1.1-.7-3.7 1.2-5.1 3.4-6.3 3.2-6.3-.9 0-4.7 4.6-24.4 6.1-26.2 1.9-2.3.4-2.9-7.9-3.2-7.4-.3-7.9-.2-13 3.3zm12.4 2.9c.4 1.2-3.9 20.4-4.8 21-10.9 8-13.1 8.3-13.6 2.1-.6-7.1 2.6-18.2 6.6-22.8 1.9-2.1 11-2.4 11.8-.3z"/><path d="M433.7 84.5c-3.7 2.5-6.7 5-6.7 5.6 0 .6.3.9.8.7.4-.2 1.9-1 3.5-1.7 1.5-.8 3-1.1 3.4-.8 1.5 1.5-8.7 42.5-11.8 47.6-1.7 2.8-2.4 3.1-6.8 3.1-4 0-5.3.4-6.5 2.2-2.4 3.3-2 3.8 2.8 3.8 3.9 0 5.1-.6 10.1-5.1 6.4-5.9 9.7-11.1 11.9-18.9 3-10.5 9.5-39.4 9-40.2-1-1.5-3-.8-9.7 3.7zm32.3-3.8c-4.2 1.6-10.1 7.8-13.2 14-2.8 5.7-3.2 7.6-3.3 14.4 0 6.8.3 8.1 2.2 10.1 4.3 4.3 12.6 2 21.1-5.7 5.9-5.4 5-6.8-1.5-2.2-8.2 5.9-12.3 6-14.2.5-1.7-4.7-1.5-5.2 3.7-8.9 12.5-8.9 17-15.5 13.8-20.4-1.6-2.5-5-3.1-8.6-1.8zm2.1 5.7c1.6 3.3-1.2 8.8-6.5 12.6-4 3-4.1 3.1-4.4.9-.7-4.6 5.2-15.9 8.4-15.9.8 0 1.9 1.1 2.5 2.4zm92.4-5c-3.7 1.6-9.2 7.7-10.1 11.2-.9 3.5 1 7.2 5.7 11.2 2.8 2.4 3.9 4.1 3.9 6.1 0 2.8-2.9 6.2-6.3 7.4-2.3.8-6.7-3.3-6.7-6.3 0-2.4-1.2-2.5-4.5-.4-5.7 3.7.2 12.5 7.3 10.8 7.4-1.8 14.6-7.7 16-13 1.3-4.8.3-7.2-4.2-10.4-6-4-7.3-8.1-3.8-11.3 2.3-2.1 6-2.2 8.3-.1 1.6 1.4 1.9 1.3 3.8-.7 2.6-2.8 2.6-3.6.2-4.9-2.6-1.3-5.9-1.2-9.6.4zm63.4 2.5c-3.5 2.1-6.5 4.6-6.7 5.5-.3 1.5-.1 1.5 3.2-.1 2-.9 3.9-1.3 4.3-.9.4.4-.5 5.5-2 11.4-3.8 15.1-4.3 19.5-2.3 21.1 1.3 1.1 2.2.9 5.8-1.2 7.4-4.3 13.3-9 12-9.5-.7-.2-2.8.6-4.8 1.7-7.5 4.5-8 1.9-3.4-17.1 1.7-6.7 3-12.8 3-13.5 0-2.2-2.3-1.5-9.1 2.6zM19.8 163.7c.7.3 1.6.2 1.9-.1.4-.3-.2-.6-1.3-.5-1.1 0-1.4.3-.6.6z"/></g><path fill="#F60" d="M115.3 64.7c.9.2 2.3.2 3 0 .6-.3-.1-.5-1.8-.5-1.6 0-2.2.2-1.2.5zm-18.9 8.5-1.9 2.3 2.3-1.9c2.1-1.8 2.7-2.6 1.9-2.6-.2 0-1.2 1-2.3 2.2z"/><path fill="none" d="M38.5 5c-.3.5-.1 1 .4 1 .6 0 1.1-.5 1.1-1 0-.6-.2-1-.4-1-.3 0-.8.4-1.1 1zm350.3 55.7c.6.2 1.8.2 2.5 0 .6-.3.1-.5-1.3-.5-1.4 0-1.9.2-1.2.5zm-44.7 6.9c0 1.1.3 1.4.6.6.3-.7.2-1.6-.1-1.9-.3-.4-.6.2-.5 1.3z"/><path fill="#F50" fill-opacity=".01" d="M476.1 85.6c0 1.1.3 1.4.6.6.3-.7.2-1.6-.1-1.9-.3-.4-.6.2-.5 1.3z"/><path fill="#EF4000" fill-opacity=".06" d="M90.2 102c0 1.9.2 2.7.5 1.7.2-.9.2-2.5 0-3.5-.3-.9-.5-.1-.5 1.8z"/><path fill="#F30" fill-opacity=".02" d="M101.2 28c0 1.9.2 2.7.5 1.7.2-.9.2-2.5 0-3.5-.3-.9-.5-.1-.5 1.8zm17.6 33.7c1.2.2 3.2.2 4.5 0 1.2-.2.2-.4-2.3-.4s-3.5.2-2.2.4z"/><path fill="#E40" fill-opacity=".06" d="M17.1 34.6c0 1.1.3 1.4.6.6.3-.7.2-1.6-.1-1.9-.3-.4-.6.2-.5 1.3z"/><path fill="#EA2B00" fill-opacity=".28" d="M46.8 52.7c.7.3 1.6.2 1.9-.1.4-.3-.2-.6-1.3-.5-1.1 0-1.4.3-.6.6z"/><path fill="#EE2E00" fill-opacity=".17" d="M590.9 92.7c-1.3 1.6-1.2 1.7.4.4 1.6-1.3 2.1-2.1 1.3-2.1-.2 0-1 .8-1.7 1.7z"/><path fill="red" fill-opacity=".01" d="M406.3 85.7c.9.2 2.3.2 3 0 .6-.3-.1-.5-1.8-.5-1.6 0-2.2.2-1.2.5zm199.7-.3c0 .2.7.7 1.6 1 .8.3 1.2.2.9-.4-.6-1-2.5-1.4-2.5-.6zm-358.9 22.2c0 1.1.3 1.4.6.6.3-.7.2-1.6-.1-1.9-.3-.4-.6.2-.5 1.3z"/><path fill="#EB4500" fill-opacity=".1" d="M1.2 153c0 1.9.2 2.7.5 1.7.2-.9.2-2.5 0-3.5-.3-.9-.5-.1-.5 1.8z"/><path fill="#EB3200" fill-opacity=".2" d="M109.8 96.7c.6.2 1.8.2 2.5 0 .6-.3.1-.5-1.3-.5-1.4 0-1.9.2-1.2.5z"/><path fill="#EC5F00" fill-opacity=".43" d="M115.8 93.7c.7.3 1.6.2 1.9-.1.4-.3-.2-.6-1.3-.5-1.1 0-1.4.3-.6.6z"/><path fill="#E83A00" fill-opacity=".09" d="M100.3 117.7c.9.2 2.5.2 3.5 0 .9-.3.1-.5-1.8-.5-1.9 0-2.7.2-1.7.5z"/><path fill="#EC5A00" fill-opacity=".21" d="M8.1 131.6c0 1.1.3 1.4.6.6.3-.7.2-1.6-.1-1.9-.3-.4-.6.2-.5 1.3z"/><path fill="#EB6000" fill-opacity=".35" d="M99.8 137.7c.7.3 1.6.2 1.9-.1.4-.3-.2-.6-1.3-.5-1.1 0-1.4.3-.6.6z"/></svg>