<svg xmlns="http://www.w3.org/2000/svg" version="1.0" viewBox="0 0 799 208"><g fill="#F30" stroke-width="0"><path d="M99.9 23.4c-1.3 1.4-5.5 5.4-9.2 9-5.6 5.5-6.7 7-6.2 8.9.4 1.2 1.3 2.6 1.9 3.2 1 .8.6 2.5-1.7 7.5-3.1 6.8-3.5 11-1.4 15.9 1.7 3.9 6.6 9.2 10.9 11.9 2 1.3 4.7 3.9 5.8 5.8 1.2 1.8 2.6 3.4 3.2 3.4 2.3 0 .2 9.6-3.2 14.5-4.4 6.4-17 31.3-17 33.6 0 1.1-.4 1.9-.9 1.9s-.8 9.1-.8 20.8c.1 11.4-.2 21.7-.6 22.9-.7 1.9-.5 2.3 1.2 2.3 1.4 0 2.1-.6 2.1-1.8 0-1 .5-2.3 1.1-2.9.6-.6 1.2-3 1.4-5.4.1-2.4.8-5.7 1.4-7.4.7-1.6 1.1-4.1.9-5.5-.1-1.4.1-3 .5-3.7.4-.6.2-1.5-.4-1.8-1.3-.9-.3-11.6 1.7-16.3 1.9-4.6 8-7.1 14.7-6.1 6.3 1 14.7 7.2 14.7 10.8 0 3.5 3.9 11.1 5.6 11.1.8 0 2.5.9 3.7 2 1.7 1.6 1.9 2.4 1.1 3.7-.9 1.4-.5 2 2 3.3 4.2 2.1 6.4 7.1 6.1 14.2l-.2 5.8h5.4c3.4 0 5.2-.4 4.8-1-.3-.6-1.2-1-2-1-.7 0-1.9-1.7-2.5-3.8-.6-2-1.4-4.4-1.8-5.2-.3-.8-.6-2-.7-2.5-.4-4.3-3.3-11.5-5.7-14.1-2.5-2.7-2.8-3.6-2.2-7.1.4-2.6.2-4.3-.5-4.7-.6-.4-1.1-1.5-1.1-2.5s-.9-2.1-1.9-2.4c-1.4-.3-1.8-1.1-1.5-2.4.4-1.3-.7-3.4-3.1-6.3-2-2.3-4.1-5.2-4.7-6.4-.6-1.2-2-3.1-3.1-4.3-1.1-1.3-2.2-4.2-2.5-6.8-.6-6.3 2.4-10.5 11.8-16.6 4.1-2.6 8.8-6 10.5-7.4 1.6-1.4 3.5-2.5 4.2-2.5.6 0 1.3-.4 1.5-.8.2-.5 3.5-3 7.3-5.6 3.9-2.7 9.3-7.1 12.1-9.8 3.2-3.1 5.4-4.6 5.8-3.9.4.6 1.6 1.1 2.7 1.1 1.4 0 1.9-.7 2-2.8.2-5.5.6-7.6 1.7-8 .7-.2 1.2-.9 1.2-1.6 0-.7 1.1-2.2 2.5-3.2 3.1-2.3 3.7-8.1.7-6.5-1 .5-3.8 3-6.2 5.5-2.5 2.5-5 4.6-5.7 4.6-.6 0-2 1-3 2.3-2.2 2.9-14.2 10.1-20.3 12.2-5.4 1.9-15.1 2.8-28 2.5-7.6-.1-9.9-.5-11.5-2-1.1-1-3.1-2.1-4.5-2.5-4.8-1.4-6.5-4.6-3.8-7.3.6-.6 1.2-3.7 1.4-6.9.4-9 .9-10.7 3.2-11.8 1.1-.5 2.3-1.6 2.5-2.5.2-.8 1.7-2.2 3.3-3 1.6-.8 5-3 7.5-4.7 2.6-1.8 5.1-3.3 5.7-3.3.5 0 1.2-.7 1.6-1.5.3-1 1.9-1.5 4.6-1.5 2.2 0 4-.5 4-1 0-1.9-2.5-2.1-6.3-.5-5 2.1-5.7 1.9-5.7-1.3l-.1-2.7-2.4 2.9-2.4 3-1.2-2.6c-2-4.4-8.3-5.1-12-1.4zm209.7 63.8c-.3.7-1.2 5.5-2.1 10.5-1 5.1-2.1 9.3-2.5 9.3-.4 0-1.3-.7-2-1.5-1.8-2.1-7.6-2.9-12-1.6-4.3 1.3-9.2 6.3-11.6 11.9-2.1 5-2.9 15.8-1.5 20.7 2.4 9.2 12 13.2 19.4 8.1 3.5-2.4 3.7-2.4 3.7-.6 0 1.7.7 2 4.8 2h4.7l4.9-28.8c2.7-15.8 5.1-29.3 5.4-30 .3-.9-1.1-1.2-5.2-1.2-3.7 0-5.8.4-6 1.2zm-7.5 26.7c2.3 1.8 2.3 2 1 10.1-1.6 10.3-1.7 10.8-5.2 12.5-3.8 2-5.5 1.9-7.9-.5-4-4-2-17.2 3.3-21.6 3.4-2.9 5.7-3 8.8-.5zm356.6.3c-2.7 15.6-5.1 29.1-5.3 30-.5 1.6.2 1.8 5 1.8 6 0 5.9.1 7.1-7.6.6-3.8 4.7-9.5 6-8.3.2.3 2 4 3.9 8.2l3.5 7.7H691l-5.9-11.8-5.9-11.7 9.1-9.3 9.2-9.2h-14.1l-6.9 7c-3.8 3.8-7 6.8-7.2 6.7-.1-.2.9-6.6 2.2-14.2 3.4-18.7 3.6-17.5-2.8-17.5h-5.2l-4.8 28.2zM265.5 89.5c-1.4 1.3-2.5 3.1-2.5 4 0 2.2 3.7 5.5 6.3 5.5 6.4-.1 8.5-7.9 2.7-11-2.8-1.5-3.8-1.3-6.5 1.5zM504 89c-1.1 1.1-2 2.9-2 4 0 2.7 3.5 6 6.3 6 5.3 0 7.7-7.5 3.5-10.4-3-2.1-5.4-2-7.8.4zm202.5.5c-1.4 1.3-2.5 3.1-2.5 4 0 2.2 3.7 5.5 6.3 5.5 6.4-.1 8.5-7.9 2.7-11-2.8-1.5-3.8-1.3-6.5 1.5z"/><path d="M178.5 90.4c-8.9 4.2-14.4 12.5-16.6 25-2.2 12.7.9 23.5 8.2 28.3 7.7 5.1 24.6 3.7 30.9-2.5 2.2-2.3 2.8-4.1 3.9-12.2.7-5.2 1.5-10.3 1.7-11.3.5-1.5-.5-1.7-10.4-1.7h-10.9l-.7 3.1c-1.1 5.7-1 5.9 4.5 5.9 4.3 0 5 .2 4.5 1.7-.2 1-.7 3.3-1.1 5.1-1.5 7.5-15.3 7.8-18.5.3-.8-2.1-1.1-5.9-.8-11.4.8-14.3 6.3-23 14.7-23 5.1 0 8.1 1.8 8.8 5.4.7 3.7 1.7 4.1 7.5 3.7l4.5-.3-1.2-4.8c-.7-2.6-2.3-5.9-3.6-7.4-5.9-6.4-16.6-8.1-25.4-3.9zm215.1-.2c-.5 1.3-9.6 54.1-9.6 55.2 0 .9 10.8.7 11.4-.2.2-.4 1.7-9.6 3.2-20.4 1.5-10.9 2.9-19.6 3.1-19.4.3.3 7.3 38.9 7.3 40.2 0 .3 1.9.4 4.1.2l4.1-.3 10.1-19.2c5.6-10.6 10.3-19.1 10.4-18.9.2.1-1.3 7.9-3.2 17.2-4.7 22.5-4.8 21.4 1.9 21.4 5.1 0 5.5-.2 6-2.8.3-1.5 2.4-13.3 4.6-26.2 2.2-12.9 4.2-24.5 4.5-25.8.5-2.1.3-2.2-7.3-2.2h-7.8l-1.8 3.7c-1 2.1-5.6 11.2-10.4 20.3-6 11.4-8.8 15.9-9.1 14.5-.2-1.1-1.8-10.1-3.5-20l-3.1-18-7.3-.3c-5.2-.2-7.3.1-7.6 1zm-59.6 15c-5.9 3-10.6 9.3-12 16.4-3.5 16.9 7.3 28.6 22.5 24.4 16.9-4.7 21.5-33.2 6.5-40.8-2.4-1.2-6.3-2.2-8.5-2.2s-6.1 1-8.5 2.2zm13 9c4.1 4.4 1.5 19.9-3.8 22.7-5.4 2.9-10 .1-10.9-6.6-1.6-11.9 8.4-22.8 14.7-16.1zm119.5-9.9c-5.3 2.1-7.4 3.7-9 6.7-2.3 4.5-1.9 5 4 5 4.3 0 5.6-.4 6.4-1.9 1.3-2.4 5.5-3.5 8.1-2.1 1.4.7 2 2.1 2 4.4v3.3l-7.3.5c-11.9.8-18.7 5.9-18.7 14.3 0 5 2.3 8.9 6.4 10.9 4.5 2.1 8.3 2 12.9-.3 2.9-1.5 3.7-1.6 3.7-.5 0 1 1.5 1.4 5.5 1.4h5.5v-4.3c0-2.3.7-8.3 1.5-13.2 2.1-12.6 1.9-16.7-.7-20-4-5.1-13.2-7-20.3-4.2zm9.7 26.2c-.6 4.7-4.3 7.7-9.1 7.3-3.1-.3-3.6-.7-3.9-3-.5-4.3 3.6-7.8 9.1-7.8h4.3l-.4 3.5zm54.8-26.4c-5 2.1-9.3 6.3-11.5 11.3-6 13.3-3.3 25.1 6.9 29.7 7 3.2 15.9 2 21.6-2.7l3-2.6-2.6-3.3-2.5-3.4-3.6 2.5c-2 1.3-4.8 2.4-6.4 2.4-3.2 0-7.4-3.4-8.4-6.8l-.6-2.2h26l.7-3.6c1.5-8.1-1-15.4-6.9-19.8-3-2.2-11.9-3.1-15.7-1.5zm9.5 8.5c2 .8 3.7 4.8 2.9 6.9-.5 1.1-2.3 1.5-8 1.5h-7.5l1.6-2.9c2.5-5 6.8-7.1 11-5.5zm86-7.7c-7 3.2-10 8.6-8.3 14.8 1.1 4.1 4.4 6.7 12.3 9.3 8.4 2.8 9.7 6.4 3.3 9.1-3.7 1.5-7.9.3-9.3-2.9-.8-1.9-1.8-2.2-6.2-2.2h-5.2l1 3.2c3.3 11.5 21.3 14.6 30.6 5.3 2.8-2.8 3.3-4 3.3-7.8 0-6.4-2.8-9.4-11.5-12.2-7.2-2.3-9.3-4.1-8.2-6.9 1.7-4.4 10.2-4.5 11.3-.1.6 2.3 1.1 2.5 6.1 2.5h5.6l-.7-3.2c-1.8-8.9-14.1-13.5-24.1-8.9zm-411.3 12.8c-1.2 7.6-2.2 15.1-2.2 16.6 0 10.3 9.8 15.8 19.3 10.7 3.1-1.7 3.7-1.7 3.7-.5 0 1.1 1.2 1.5 5 1.5 2.8 0 5-.3 5-.8 0-.4 1.6-9.7 3.5-20.7s3.5-20.1 3.5-20.2c0-.2-2.4-.3-5.4-.3h-5.5l-1 5.2c-.6 2.9-1.8 9.6-2.7 14.8-1.9 10.9-3.4 13.2-8.9 13.4-6.1.2-6.3-1.2-3.5-18.4l2.6-15h-11.2l-2.2 13.7zm46.4-11c-1.1 5.2-6.6 37.3-6.6 38.3 0 .6 2.4 1 5.5 1 3 0 5.5-.3 5.5-.8 0-.4 1.6-9.7 3.5-20.7s3.5-20.1 3.5-20.2c0-.2-2.4-.3-5.4-.3-5.1 0-5.5.2-6 2.7zm239 0c-.3 1.6-2.1 12-4.1 23.3-3 17.5-3.8 20.8-5.7 22.3-1.3 1.1-3.2 1.7-4.5 1.4-2.6-.5-3.8 2-3.1 6.4.3 2.2.8 2.4 6 2.4 6.4 0 10.1-2.1 13-7.1 1.2-2.1 9.8-46.7 9.8-50.9 0-.3-2.4-.5-5.4-.5-5.1 0-5.5.2-6 2.7zm60.4.5c0 5 2 34 2.6 36.6.4 2.1 1 2.3 5 2l4.5-.3 5.7-12.2c3.1-6.7 6-11.9 6.3-11.5.3.4 1.2 6 1.9 12.4l1.2 11.8h9.4l8.3-19.8c4.6-10.8 8.6-20.3 8.8-21 .4-.9-1-1.2-4.9-1.2h-5.5l-4.9 13.1-4.9 13-.6-4.3c-.4-2.4-1-8.2-1.4-13.1l-.8-8.7h-8.3l-5.4 12c-2.9 6.7-5.7 12.3-6.2 12.6-.4.3-.8-5.1-.8-12V104h-5c-5 0-5 0-5 3.2zm141.6-.5c-1.1 5.2-6.6 37.3-6.6 38.3 0 .6 2.4 1 5.5 1 3 0 5.5-.3 5.5-.8 0-.4 1.6-9.7 3.5-20.7s3.5-20.1 3.5-20.2c0-.2-2.4-.3-5.4-.3-5.1 0-5.5.2-6 2.7z"/></g><path fill="none" d="M118.5 26c-.3.5-.1 1 .4 1 .6 0 1.1-.5 1.1-1 0-.6-.2-1-.4-1-.3 0-.8.4-1.1 1z"/><path fill="#F30" fill-opacity=".02" d="M181.2 49c0 1.9.2 2.7.5 1.7.2-.9.2-2.5 0-3.5-.3-.9-.5-.1-.5 1.8z"/><path fill="#E40" fill-opacity=".06" d="M97.1 55.6c0 1.1.3 1.4.6.6.3-.7.2-1.6-.1-1.9-.3-.4-.6.2-.5 1.3z"/><path fill="#EA2B00" fill-opacity=".28" d="M126.8 73.7c.7.3 1.6.2 1.9-.1.4-.3-.2-.6-1.3-.5-1.1 0-1.4.3-.6.6z"/><path fill="#EB4500" fill-opacity=".1" d="M81.2 174c0 1.9.2 2.7.5 1.7.2-.9.2-2.5 0-3.5-.3-.9-.5-.1-.5 1.8z"/><path fill="#EC5A00" fill-opacity=".21" d="M88.1 152.6c0 1.1.3 1.4.6.6.3-.7.2-1.6-.1-1.9-.3-.4-.6.2-.5 1.3z"/></svg>